<?xml version="1.0" encoding="UTF-8" standalone="no"?>
<svg
   xmlns:dc="http://purl.org/dc/elements/1.1/"
   xmlns:cc="http://creativecommons.org/ns#"
   xmlns:rdf="http://www.w3.org/1999/02/22-rdf-syntax-ns#"
   xmlns:svg="http://www.w3.org/2000/svg"
   xmlns="http://www.w3.org/2000/svg"
   xmlns:sodipodi="http://sodipodi.sourceforge.net/DTD/sodipodi-0.dtd"
   xmlns:inkscape="http://www.inkscape.org/namespaces/inkscape"
   version="1.1"
   id="Capa_1"
   x="0px"
   y="0px"
   viewBox="0 0 45.999998 45.999998"
   xml:space="preserve"
   sodipodi:docname="cover.svg"
   inkscape:version="1.0 (4035a4fb49, 2020-05-01)"
   width="46"
   height="46"
   inkscape:export-filename="/home/m1que4s/Programming/Projects/lplayer/cover.png"
   inkscape:export-xdpi="9"
   inkscape:export-ydpi="9"><metadata
   id="metadata43"><rdf:RDF><cc:Work
       rdf:about=""><dc:format>image/svg+xml</dc:format><dc:type
         rdf:resource="http://purl.org/dc/dcmitype/StillImage" /><dc:title></dc:title></cc:Work></rdf:RDF></metadata><defs
   id="defs41">
	
















		
	</defs><sodipodi:namedview
   inkscape:document-rotation="0"
   pagecolor="#ffffff"
   bordercolor="#666666"
   borderopacity="1"
   objecttolerance="10"
   gridtolerance="10"
   guidetolerance="10"
   inkscape:pageopacity="0"
   inkscape:pageshadow="2"
   inkscape:window-width="1024"
   inkscape:window-height="555"
   id="namedview39"
   showgrid="false"
   inkscape:pagecheckerboard="true"
   inkscape:snap-page="true"
   inkscape:zoom="5.0720738"
   inkscape:cx="52.120514"
   inkscape:cy="30.406723"
   inkscape:window-x="0"
   inkscape:window-y="0"
   inkscape:window-maximized="1"
   inkscape:current-layer="Capa_1"
   fit-margin-top="0"
   fit-margin-left="0"
   fit-margin-right="0"
   fit-margin-bottom="0" />
<rect
   style="fill:#1b1b1b;fill-rule:evenodd"
   id="rect48"
   width="46"
   height="46"
   x="0"
   y="0" /><path
   d="M 34.382858,11.617142 C 31.460691,8.6949753 27.451207,6.8941053 23,6.8941053 c -4.451207,0 -8.460691,1.80087 -11.382858,4.7230367 C 8.6949754,14.539309 6.8941053,18.548793 6.8941053,23 c 0,4.451207 1.8008701,8.460691 4.7230367,11.382858 2.922167,2.922166 6.931651,4.723037 11.382858,4.723037 4.451207,0 8.460691,-1.800871 11.382858,-4.723037 C 37.305024,31.460691 39.105895,27.451207 39.105895,23 c 0,-4.451207 -1.800871,-8.460691 -4.723037,-11.382858 z m -15.800087,9.038329 -1.698933,-1.01936 -6.45595,-3.805613 c 0.645595,-1.121296 1.427105,-2.140656 2.344529,-3.058081 0.917425,-0.917424 1.936785,-1.698934 3.058081,-2.344529 l 3.805613,6.45595 1.01936,1.698933 c -0.441723,0.237851 -0.849467,0.543659 -1.189254,0.883446 -0.339787,0.339787 -0.645595,0.747531 -0.883446,1.189254 z m 2.038721,4.723037 C 20.009876,24.766892 19.636111,23.917424 19.636111,23 c 0,-0.917424 0.373765,-1.766891 0.985381,-2.378508 0.611617,-0.611616 1.461084,-0.985381 2.378508,-0.985381 0.917424,0 1.766892,0.373765 2.378508,0.985381 0.611616,0.611617 0.985381,1.461084 0.985381,2.378508 0,0.917424 -0.373765,1.766892 -0.985381,2.378508 -0.611616,0.611616 -1.461084,0.985381 -2.378508,0.985381 -0.917424,0 -1.766891,-0.373765 -2.378508,-0.985381 z m 12.606091,7.849075 c -0.917425,0.917424 -1.936785,1.698934 -3.058081,2.344529 l -3.805613,-6.45595 -1.01936,-1.698933 c 0.441723,-0.237851 0.849467,-0.543659 1.189254,-0.883446 0.339787,-0.339787 0.645595,-0.747531 0.883446,-1.189254 l 1.698933,1.01936 6.45595,3.805613 c -0.645595,1.121296 -1.427105,2.140656 -2.344529,3.058081 z"
   id="path2"
   style="fill:#ffffff;stroke-width:0.0849468" />















</svg>
